<svg width="824" height="801" viewBox="0 0 824 801" fill="none" xmlns="http://www.w3.org/2000/svg">
<path d="M376.166 134.512L373.645 41.5463L391.068 41.0738C391.299 39.5121 391.44 37.9384 391.491 36.3606C391.228 29.9854 390.845 23.6134 390.582 17.2382C390.354 11.7724 396.893 2.81178 402.157 1.40856C405.375 0.551008 408.38 1.05974 410.671 3.65858C414.737 8.26004 417.737 13.3706 417.88 19.7391C418.037 25.5469 418.195 31.3548 418.372 37.9024L438.365 37.3602C439.652 69.7072 440.91 101.315 442.205 133.571C420.3 134.816 398.522 134.436 376.166 134.512Z" fill="#5692D9"/>
<path d="M86.5194 196.109C80.9414 191.241 75.6375 186.536 70.2754 181.913C65.393 177.688 62.9587 168.754 64.9508 162.545C66.0873 159.036 68.459 156.989 72.1049 156.772C78.4875 156.389 84.4322 157.767 89.4338 161.959C93.619 165.47 97.6077 169.136 102.245 173.146C104.458 170.742 106.516 168.553 108.534 166.324C110.551 164.095 112.432 162.029 114.662 159.505L188.706 222.353L145.082 271.63L75.1134 209.795L86.5194 196.109Z" fill="#5692D9"/>
<path d="M695.434 140.109L708.907 152.775C709.809 151.402 710.793 150.084 711.852 148.829C715.989 144.452 720.175 140.139 724.409 135.89C728.741 131.494 738.768 130.111 744.241 133.018C745.647 133.71 746.808 134.814 747.569 136.182C748.331 137.551 748.657 139.12 748.504 140.679C748.164 146.971 746.609 152.883 741.916 157.554C738.214 161.294 734.561 165.037 730.486 169.211L743.388 182.417L676.8 252.66L629.691 206.754L695.434 140.109Z" fill="#5692D9"/>
<path d="M610.47 190.28L552.62 158.82C567.71 131.25 582.52 104.16 597.54 76.7104L613.1 84.7104C614.1 83.0604 615.04 81.7104 615.8 80.3704C618.23 75.8904 620.98 71.5404 622.94 66.8604C626.08 59.3204 632.54 57.3904 639.51 56.3404C644.19 55.6404 647.82 58.2104 648.76 62.9204C649.99 69.0504 650.16 75.2004 646.86 80.9204C644.33 85.3404 641.98 89.8704 639.21 94.9204L655.21 104.08L610.47 190.28Z" fill="#5692D9"/>
<path d="M161.42 125.447L175.948 115.863C175.232 114.453 174.699 113.163 173.97 111.993C170.857 107.061 167.672 102.176 164.538 97.2527C161.051 91.8104 161.311 82.5612 164.951 77.1864C165.868 75.6852 167.268 74.5404 168.921 73.9402C170.574 73.34 172.383 73.32 174.049 73.8836C179.919 75.5468 185.198 78.3403 188.661 83.6711C191.612 88.2539 194.522 92.8645 197.73 97.9114L213.456 88.3809L266.874 169.153L211.307 204.43C194.683 178.012 178.216 152.034 161.42 125.447Z" fill="#5692D9"/>
<path d="M469.697 135.005L493.278 44.6941L510.658 48.4697C512.535 41.1459 514.498 34.3396 515.988 27.4483C517.652 19.7211 523.463 16.5635 530.002 14.5431C534.807 13.0486 538.017 14.8668 540.169 19.6003C542.708 25.1618 543.955 30.9549 542.181 37.1049C540.765 41.9626 539.593 46.8927 538.183 52.2406L555.959 57.1541C548.452 88.5905 540.957 119.816 533.381 151.615L469.697 135.005Z" fill="#5692D9"/>
<path d="M346.04 141.73L283.25 161.3C274.07 131.3 265.03 101.86 255.85 71.8996L272.68 66.1696C270.32 58.5696 268.1 51.4796 265.92 44.3696C264.13 38.5496 268.09 28.2696 273.2 25.2096C274.363 24.4736 275.709 24.0771 277.085 24.0648C278.461 24.0524 279.814 24.4247 280.99 25.1396C286.6 28.2096 290.99 32.4796 292.99 38.6596C294.72 43.8096 296.22 49.0396 297.99 54.8396L306.99 52.3296L315.79 49.7896L346.04 141.73Z" fill="#5692D9"/>
<path d="M40.5187 260.049L49.2172 243.843L135.835 287.305C125.645 306.71 115.63 325.806 105.238 345.582L22.6696 302.007L30.4359 286.378C29.061 285.516 27.9277 284.681 26.6936 284.032C21.5495 281.287 16.342 278.675 11.1705 275.98C5.29969 272.921 0.931971 264.299 1.76366 257.729C1.89171 256.262 2.45579 254.867 3.38332 253.723C4.31085 252.579 5.55942 251.739 6.96841 251.31C9.9586 250.193 13.1463 249.702 16.3341 249.868C19.5218 250.033 22.6415 250.852 25.4999 252.272C30.3064 254.674 35.1114 257.247 40.5187 260.049Z" fill="#5692D9"/>
<path d="M691.335 272.238L770.73 222.931L780.35 237.715C782.527 236.403 784.326 235.344 786.165 234.216C790.14 231.715 794.367 229.413 798.158 226.604C804.7 221.758 811.287 223.411 817.785 226.145C821.802 227.815 823.349 231.489 822.211 235.661C820.495 241.959 817.41 247.42 811.575 250.949C807.083 253.665 802.631 256.5 797.901 259.478L807.431 275.253L726.211 328.018C714.532 309.385 703.096 291.05 691.335 272.238Z" fill="#5692D9"/>
<circle cx="419" cy="467" r="331.5" fill="#5692D9" stroke="#5692D9" stroke-width="5"/>
<path d="M716.5 467C716.5 631.305 583.305 764.5 419 764.5C254.695 764.5 121.5 631.305 121.5 467C121.5 302.695 254.695 169.5 419 169.5C583.305 169.5 716.5 302.695 716.5 467Z" fill="#D9D9D9" stroke="#5692D9" stroke-width="5"/>
<path d="M647.133 466.5C647.133 593.258 544.763 696 418.504 696C292.244 696 189.874 593.258 189.874 466.5C189.874 339.742 292.244 237 418.504 237C544.763 237 647.133 339.742 647.133 466.5Z" stroke="#5692D9" stroke-width="5"/>
<path d="M676.504 466.5C676.504 609.568 560.967 725.5 418.504 725.5C276.041 725.5 160.504 609.568 160.504 466.5C160.504 323.432 276.041 207.5 418.504 207.5C560.967 207.5 676.504 323.432 676.504 466.5Z" stroke="#5692D9" stroke-width="15"/>
<path d="M607.514 466.5C607.514 571.323 522.865 656.25 418.504 656.25C314.143 656.25 229.494 571.323 229.494 466.5C229.494 361.677 314.143 276.75 418.504 276.75C522.865 276.75 607.514 361.677 607.514 466.5Z" stroke="#5692D9" stroke-width="15"/>
<path d="M578.024 466.501C578.024 554.947 506.595 626.631 418.504 626.631C330.412 626.631 258.984 554.947 258.984 466.501C258.984 378.055 330.412 306.371 418.504 306.371C506.595 306.371 578.024 378.055 578.024 466.501Z" stroke="#5692D9" stroke-width="5"/>
<path d="M538.533 466.5C538.533 533.083 484.768 587.01 418.504 587.01C352.24 587.01 298.474 533.083 298.474 466.5C298.474 399.918 352.24 345.99 418.504 345.99C484.768 345.99 538.533 399.918 538.533 466.5Z" stroke="#5692D9" stroke-width="15"/>
<path d="M509.033 466.501C509.033 516.702 468.493 557.381 418.504 557.381C368.515 557.381 327.974 516.702 327.974 466.501C327.974 416.301 368.515 375.621 418.504 375.621C468.493 375.621 509.033 416.301 509.033 466.501Z" stroke="#5692D9" stroke-width="5"/>
<path d="M485.5 466.5C485.5 503.655 455.496 533.758 418.504 533.758C381.512 533.758 351.508 503.655 351.508 466.5C351.508 429.346 381.512 399.242 418.504 399.242C455.496 399.242 485.5 429.346 485.5 466.5Z" stroke="#5692D9" stroke-width="5"/>
<path d="M469.5 466.5C469.5 494.785 446.659 517.698 418.504 517.698C390.348 517.698 367.508 494.785 367.508 466.5C367.508 438.216 390.348 415.303 418.504 415.303C446.659 415.303 469.5 438.216 469.5 466.5Z" stroke="#5692D9" stroke-width="5"/>
<path d="M458.5 466.5C458.5 488.687 440.584 506.656 418.504 506.656C396.423 506.656 378.508 488.687 378.508 466.5C378.508 444.313 396.423 426.344 418.504 426.344C440.584 426.344 458.5 444.313 458.5 466.5Z" stroke="#5692D9" stroke-width="5"/>
<path d="M448.5 466.499C448.5 483.142 435.061 496.618 418.504 496.618C401.946 496.618 388.508 483.142 388.508 466.499C388.508 449.857 401.946 436.381 418.504 436.381C435.061 436.381 448.5 449.857 448.5 466.499Z" stroke="#5692D9" stroke-width="5"/>
<path d="M440.5 466.501C440.5 478.709 430.643 488.589 418.504 488.589C406.364 488.589 396.508 478.709 396.508 466.501C396.508 454.293 406.364 444.412 418.504 444.412C430.643 444.412 440.5 454.293 440.5 466.501Z" stroke="#5692D9" stroke-width="5"/>
<path d="M432.5 466.5C432.5 474.273 426.225 480.558 418.504 480.558C410.783 480.558 404.508 474.273 404.508 466.5C404.508 458.727 410.783 452.441 418.504 452.441C426.225 452.441 432.5 458.727 432.5 466.5Z" stroke="#5692D9" stroke-width="5"/>
<path d="M427.5 466.5C427.5 471.502 423.463 475.54 418.504 475.54C413.544 475.54 409.508 471.502 409.508 466.5C409.508 461.499 413.544 457.461 418.504 457.461C423.463 457.461 427.5 461.499 427.5 466.5Z" stroke="#5692D9" stroke-width="5"/>
<path d="M424.939 466.501C424.939 470.069 422.058 472.961 418.504 472.961C414.95 472.961 412.069 470.069 412.069 466.501C412.069 462.933 414.95 460.042 418.504 460.042C422.058 460.042 424.939 462.933 424.939 466.501Z" stroke="#5692D9" stroke-width="0.122339"/>
<path d="M422.958 466.499C422.958 468.969 420.963 470.97 418.504 470.97C416.044 470.97 414.05 468.969 414.05 466.499C414.05 464.03 416.044 462.029 418.504 462.029C420.963 462.029 422.958 464.03 422.958 466.499Z" stroke="#5692D9" stroke-width="0.0846743"/>
</svg>
