<svg width="60" height="60" viewBox="0 0 60 60" fill="none" xmlns="http://www.w3.org/2000/svg">
<g clip-path="url(#clip0_35_10)">
<circle cx="31" cy="29" r="29" fill="white"/>
<path d="M14.0889 27.5955C14.089 27.2709 14.1532 26.9495 14.2778 26.6497C14.4024 26.35 14.585 26.0778 14.8151 25.8488C15.0452 25.6198 15.3183 25.4385 15.6187 25.3153C15.919 25.1922 16.2407 25.1295 16.5654 25.131L20.6712 25.1444C21.3259 25.1444 21.9537 25.4045 22.4166 25.8674C22.8795 26.3303 23.1395 26.9581 23.1395 27.6127V43.1376C23.6018 43.0004 24.1954 42.8542 24.845 42.7012C25.2962 42.5953 25.6984 42.3399 25.9862 41.9766C26.274 41.6133 26.4306 41.1634 26.4305 40.6999V21.4415C26.4305 20.7868 26.6905 20.1589 27.1534 19.696C27.6163 19.233 28.2441 18.9728 28.8988 18.9727H33.0128C33.6674 18.9728 34.2953 19.233 34.7582 19.696C35.221 20.1589 35.4811 20.7868 35.4811 21.4415V39.3147C35.4811 39.3147 36.5111 38.8979 37.5144 38.4744C37.8871 38.3168 38.2052 38.053 38.4289 37.7158C38.6526 37.3785 38.7721 36.9829 38.7725 36.5783V15.2707C38.7725 14.6162 39.0325 13.9884 39.4952 13.5255C39.958 13.0627 40.5857 12.8025 41.2403 12.8024H45.3538C46.0084 12.8024 46.6363 13.0625 47.0992 13.5254C47.5621 13.9883 47.8221 14.6161 47.8221 15.2707V32.8175C51.3888 30.2326 55.0033 27.1238 57.8717 23.3854C58.2881 22.843 58.5635 22.2058 58.6735 21.5308C58.7836 20.8559 58.7247 20.1642 58.5022 19.5176C56.5014 13.7614 52.7416 8.77992 47.7545 5.27774C42.7673 1.77557 36.8053 -0.0700173 30.7118 0.00203201C25.6462 0.0619891 20.6844 1.44529 16.3185 4.01471C11.9527 6.58413 8.3344 10.2504 5.82272 14.6497C3.31105 19.0491 1.99324 24.0287 2.00003 29.0946C2.00681 34.1604 3.33796 39.1365 5.86141 43.5291C6.21232 44.134 6.72857 44.6263 7.34952 44.948C7.97048 45.2698 8.67035 45.4076 9.36694 45.3454C10.1451 45.2771 11.114 45.1801 12.2659 45.0443C12.7673 44.9874 13.2302 44.748 13.5665 44.3718C13.9027 43.9956 14.0889 43.5089 14.0894 43.0043L14.0889 27.5955Z" fill="#21325B"/>
<path d="M13.9991 52.4961C18.3356 55.6507 23.4603 57.5442 28.8062 57.9671C34.1521 58.39 39.5108 57.3258 44.2894 54.8922C49.0677 52.4583 53.0796 48.7499 55.8813 44.1775C58.683 39.605 60.1653 34.3467 60.1641 28.9841C60.1641 28.3149 60.1331 27.6529 60.0886 26.9948C49.4683 42.8342 29.859 50.2391 14 52.4937" fill="#979695"/>
</g>
<defs>
<clipPath id="clip0_35_10">
<rect width="60" height="60" fill="white"/>
</clipPath>
</defs>
</svg>
