<svg width="637" height="250" viewBox="0 0 637 250" fill="none" xmlns="http://www.w3.org/2000/svg">
<g clip-path="url(#clip0_2330_4033)">
<path d="M330.8 180.49C320.91 180.12 311.03 179.86 301.15 179.35C295.8 179.07 292.9 175.35 291.42 170.76C290.68 167.939 290.36 165.024 290.47 162.11C290.42 157.62 290.69 153.11 290.87 148.64C291.07 143.64 292.67 139.12 296.46 135.64C297.511 134.656 298.762 133.911 300.127 133.456C301.492 133 302.94 132.845 304.37 133C308.31 133.28 312.27 133.34 316.22 133.46C321.68 133.63 327.14 134.03 332.58 133.84C339.85 133.6 343.58 137.96 345.16 143.24C345.921 146.302 346.258 149.455 346.16 152.61C346.16 157.34 346.02 162.08 345.7 166.81C345.36 171.89 343.37 176.18 338.96 179.1C336.45 180.74 333.61 180.48 330.8 180.49Z" fill="#0070BB"/>
<path d="M333.959 114.51C323.799 114.17 313.489 113.9 303.189 113.44C299.189 113.25 296.539 110.7 294.609 107.37C293.007 104.462 292.245 101.166 292.408 97.85C292.528 92.34 292.739 86.85 293.109 81.33C293.345 77.3376 294.924 73.5423 297.589 70.56C300.119 67.71 303.359 66.7 307.139 66.93C312.039 67.24 316.949 67.41 321.859 67.58C326.769 67.75 331.929 67.85 336.959 68C340.959 68.12 343.659 70.37 345.659 73.57C347.718 76.9815 348.678 80.9441 348.409 84.92C348.209 90.13 348.189 95.35 347.889 100.56C347.619 105.35 345.889 109.56 341.889 112.56C339.609 114.3 336.929 114.74 333.959 114.51Z" fill="#0070BB"/>
<path d="M236.16 227.44C244.85 227.77 253.53 228.21 262.22 228.44C289.92 229.07 317.62 229.77 345.33 230.11C358.58 230.28 371.84 229.82 385.09 229.39C397.97 228.98 410.84 228.21 423.72 227.67C432.56 227.3 440.3 224.58 446.17 217.67C458.61 202.94 453.84 176.67 453.86 158.6C453.9 126.387 453.9 94.1704 453.86 61.9504C453.86 54.5404 452.97 47.2304 450.06 40.3004C446.52 31.8904 440.36 26.6605 431.42 24.6905C413.5 20.7405 395.48 17.3804 377.26 15.2304C360.12 13.2304 342.957 11.4338 325.77 9.84045C314.98 8.84045 304.14 8.22045 293.3 7.68045C278.3 6.94045 263.23 6.37045 248.19 5.84045C238.06 5.49045 227.92 5.34043 217.79 5.10043C217.222 5.14722 216.653 5.01806 216.16 4.73044C217.58 4.56044 218.98 4.34046 220.4 4.25046C235.77 3.25046 251.13 2.08046 266.52 1.25046C278.193 0.637122 289.88 0.273762 301.58 0.160428C317.05 0.0104284 332.58 -0.0995581 348 0.330442C362.61 0.730442 377.24 1.50046 391.8 2.75046C413.8 4.65046 445.32 3.93044 462.63 20.0204C467.274 24.2185 470.97 29.3579 473.472 35.0965C475.974 40.835 477.225 47.0408 477.14 53.3004C477.207 83.2204 477.247 113.147 477.26 143.08C477.26 158.04 477.227 173.004 477.16 187.97C477.08 209.32 475.4 229.39 454.16 239.97C447.44 243.263 439.98 244.755 432.51 244.3C422.75 243.83 412.99 243.3 403.24 242.68C390.14 241.84 377.04 240.89 363.95 239.94C354.09 239.22 344.23 238.49 334.38 237.64C323.33 236.69 312.29 235.64 301.26 234.55C290.23 233.46 279.06 232.3 267.99 231.15C257.39 230.01 246.8 228.76 236.2 227.57L236.16 227.44Z" fill="#0070BB"/>
<path d="M420.292 28.5004C414.662 28.2404 409.032 28.0004 403.402 27.7204C397.302 27.4204 391.202 26.9404 385.082 26.7904C361.582 26.2204 338.082 25.6204 314.572 25.2904C303.652 25.1304 292.722 25.2904 281.822 25.7804C265.902 26.5404 249.992 27.5671 234.092 28.8604C224.092 29.6704 214.092 31.1304 204.092 32.4204C194.272 33.6904 188.092 39.4204 184.822 48.5804C182.909 54.1511 181.975 60.011 182.062 65.9004C182.002 82.4604 182.062 99.0204 182.062 115.58C182.062 142.694 182.062 169.81 182.062 196.93C182.062 204.17 183.572 211 187.472 217.15C189.867 221.062 193.108 224.387 196.957 226.882C200.805 229.378 205.163 230.98 209.712 231.57C227.072 234.15 244.452 236.63 261.882 238.73C274.312 240.23 286.812 241.19 299.302 242.1C313.222 243.1 327.182 243.83 341.122 244.65C355.602 245.51 370.085 246.357 384.572 247.19C384.682 247.19 384.782 247.27 384.922 247.65H383.062C371.602 247.83 360.152 247.99 348.692 248.19C322.962 248.64 297.232 249.19 271.502 249.52C258.852 249.66 246.192 249.41 233.502 249.09C223.432 248.83 213.342 248.48 203.312 247.64C187.662 246.33 174.522 240.08 165.592 226.64C160.91 219.448 158.505 211.011 158.692 202.43C158.732 174.17 158.732 145.914 158.692 117.66C158.692 97.3204 158.612 76.9804 158.692 56.6604C158.772 44.8804 163.042 34.7704 171.802 26.7404C178.83 20.3337 187.799 16.4616 197.282 15.7404C218.372 13.7944 239.559 13.0865 260.732 13.6204C276.372 13.9804 292.002 14.7704 307.632 15.6204C319.112 16.2871 330.585 17.1671 342.052 18.2604C355.525 19.5938 368.978 21.1104 382.412 22.8104C394.412 24.3304 406.412 26.2104 418.352 27.9404C419.002 28.0304 419.632 28.1904 420.272 28.3204L420.292 28.5004Z" fill="#0070BB"/>
<path d="M51.5217 51.1402C50.5683 54.4736 49.715 57.8303 48.9617 61.2103C48.3617 63.8603 47.8117 66.5303 47.4617 69.2103C46.7417 74.5803 48.2717 78.0802 52.1017 81.8502C54.1017 83.8502 56.1017 85.8503 58.8217 86.9403C61.5417 88.0303 65.3517 87.7902 68.1217 87.7002C72.2417 87.5702 76.7716 86.8602 80.1716 84.3602C82.2316 82.8402 83.0517 80.9703 84.0417 78.6803C85.3317 75.6803 86.6317 72.7302 87.9117 69.7402C89.0417 67.0902 89.9117 65.3502 89.5417 62.5402C89.0249 59.0308 88.0986 55.594 86.7817 52.3002C85.5217 49.1602 82.9617 46.3803 82.1617 43.0903C81.2617 39.4203 82.5617 36.0902 83.2717 32.5802C83.9645 29.7901 84.0396 26.8824 83.4917 24.0603C82.7517 21.1603 80.6617 20.4002 77.8417 20.2402C76.6387 20.1551 75.4331 20.3637 74.3286 20.8479C73.2242 21.3322 72.254 22.0777 71.5017 23.0202C70.467 24.2792 69.6306 25.6887 69.0217 27.2002C67.5617 30.5702 70.0217 33.3703 71.0217 36.5303C72.3717 40.9703 69.9017 45.6703 67.9117 49.5303C66.7117 51.8503 64.9117 54.6102 65.2517 57.3502C65.5917 60.0902 67.5217 62.7103 69.0717 65.0303C70.3117 66.9003 72.1616 70.5603 74.6716 70.8103" stroke="#0070BB" stroke-width="2"/>
<path d="M58.4688 87.7403C55.4688 99.0403 51.4688 102.35 51.4688 102.35C49.2488 104.82 46.0288 107.07 42.6188 105.69C40.9988 105.03 38.3388 103.2 38.1788 101.27C38.0788 99.9903 39.2488 98.6503 39.8788 97.6003C40.7488 96.1503 41.6588 94.7303 42.4688 93.2403C43.6488 91.0603 45.3088 88.2403 45.2388 85.7103C43.3088 85.4503 41.0188 88.7803 39.7688 89.9903C37.9788 91.7303 36.4588 94.1303 34.4988 95.6203C30.3288 98.7803 25.5988 95.2803 23.1688 91.7403C20.7388 88.2003 23.8988 83.7403 26.5688 81.2703C29.9688 78.1403 34.5688 77.2003 37.6288 73.6003C38.1688 72.9603 39.6288 71.6003 39.6288 70.7203C39.6288 69.6003 38.7788 69.8403 37.8588 69.7903C36.9388 69.7403 35.8588 69.7403 34.7888 69.7903C32.7888 69.7903 30.7088 69.9403 28.6588 69.9403C24.5388 69.9403 20.3288 70.3803 16.2788 69.3903C12.2288 68.4003 8.95879 65.9003 5.84879 63.2903C3.32879 61.1803 -0.881199 57.2903 1.9688 53.8003C5.5288 49.4703 10.8888 51.4603 15.5388 52.3403C20.1888 53.2203 24.9788 54.4303 29.7788 54.2603C31.7788 54.1903 33.7788 54.3403 35.7788 54.2603C36.6388 54.2603 42.1388 53.7603 39.7788 51.8803C31.5588 45.3503 18.5188 42.5603 16.8688 30.3203C16.6589 28.6889 16.7915 27.0318 17.2581 25.4546C17.7248 23.8774 18.5151 22.4148 19.5788 21.1603C21.3988 19.2103 23.9488 19.7303 26.0888 20.8403C30.3688 23.0703 33.1788 26.7703 36.1888 30.4003C39.1988 34.0303 43.3388 36.0203 47.4388 37.8803C50.6988 39.3503 54.0388 40.6203 57.4388 41.7703C61.0988 43.0103 64.8021 44.0936 68.5488 45.0203L69.5988 45.1703" stroke="#0070BB" stroke-width="2"/>
<path d="M83.5398 82.0297L90.7798 63.9697C102.15 72.5097 113.78 81.0397 125.87 88.5397C128.44 90.1297 131.05 91.6297 133.76 92.9597C135.86 93.9597 137.98 95.5197 140.37 95.9597C143.46 96.5297 145 94.6697 147.28 92.9597C148.75 91.8697 150.28 90.8397 151.77 89.7997C153.26 88.7597 154.77 87.6897 156.35 86.7097C156.49 86.6297 158.71 85.4597 158.71 85.4997V124.71C158.71 125 156.93 125.83 156.71 125.95C149.71 129.84 138.8 132.5 131.12 128.95C125.18 126.21 120.68 121.19 116.26 116.52L107.72 107.52L87.2198 85.8897C86.9398 85.6297 83.3898 82.3897 83.5398 82.0297Z" fill="#0070BB"/>
<path d="M568.36 44.3004C569.36 43.6804 570.92 43.7404 572.07 43.5304C573.53 43.2604 574.99 42.9404 576.42 42.5304C579.219 41.789 581.957 40.8328 584.61 39.6704C590.001 37.3267 595 34.1663 599.43 30.3004C602.61 27.5004 605.43 24.3004 608.66 21.5504C610.52 19.9104 612.88 18.3004 615.29 18.9104C618.05 19.6104 619.29 22.9104 619.38 25.7304C619.53 31.8904 616.15 37.7304 611.64 41.9104C607.13 46.0904 601.56 48.9104 596.06 51.7304C601.5 53.22 607.191 53.5605 612.77 52.7304C618.09 51.9404 623.27 50.0904 628.64 50.0804C630.64 50.0804 632.77 50.4204 634.12 51.8604C634.697 52.5604 635.091 53.3933 635.265 54.2838C635.44 55.1742 635.39 56.0942 635.12 56.9604C634.568 58.695 633.58 60.2586 632.25 61.5004C628.25 65.6004 622.58 67.8504 616.9 68.7404C611.22 69.6304 605.41 69.2604 599.67 68.7404C598.82 68.6704 597.77 68.6904 597.35 69.4304C596.93 70.1704 597.54 71.1904 598.19 71.8204C601.19 74.7604 605.24 76.4204 608.61 78.9404C611.98 81.4604 614.83 85.5704 613.81 89.6604C613.415 91.0431 612.646 92.2897 611.587 93.2622C610.528 94.2347 609.221 94.8951 607.81 95.1704C606.382 95.4023 604.921 95.3078 603.535 94.8938C602.15 94.4799 600.876 93.7573 599.81 92.7804C596.47 89.7804 594.75 84.4904 590.35 83.5204C590.35 86.1704 591.86 88.5704 593.47 90.6704C595.08 92.7704 596.89 94.8304 597.67 97.3604C598.45 99.8904 597.87 103.09 595.57 104.36C594.281 105.002 592.807 105.165 591.41 104.82C587.41 103.99 584.26 100.72 582.33 97.1004C580.4 93.4804 579.43 89.4304 578.02 85.5804C571.61 86.5104 564.77 87.1804 558.94 84.3704C553.11 81.5604 549.4 75.8004 548.19 69.6004C546.98 63.4004 548.19 56.9104 550.61 51.0804C552.34 46.9404 554.73 42.8804 554.79 38.3904C554.79 35.0204 553.54 31.7804 553.17 28.3904C552.8 25.0004 553.75 21.1004 556.79 19.6504C559.83 18.2004 563.42 19.8904 565.68 22.3104C566.662 23.2959 567.387 24.5083 567.79 25.8404C568.51 28.6404 567.09 31.4704 566.41 34.2804C565.625 37.6364 565.894 41.1526 567.18 44.3504C568.55 47.7504 570.51 50.5404 570.93 54.3504C571.61 60.4104 567.21 66.6204 562.17 69.5304" stroke="#0070BB" stroke-width="2"/>
<path d="M584.629 49.7998C586.283 54.0225 587.6 58.3694 588.569 62.7998C589.479 67.2498 589.569 71.9698 587.879 76.2598C586.299 80.2598 583.229 84.4998 578.879 85.5198" stroke="#0070BB" stroke-width="2"/>
<path d="M476.87 83.2197C479.29 84.5997 481.68 86.0497 484.03 87.5397C485.97 88.7597 487.88 90.0197 489.74 91.3597C491.6 92.6997 493.27 95.2697 496.01 95.0497C500.46 94.6997 503.94 91.5697 507.61 89.3797C519.55 82.2497 531.61 75.1597 542.53 66.5797C543.2 66.0597 547.22 63.4197 546.85 62.4297L553.98 81.2997L542.56 92.9997C535.48 100.226 528.393 107.453 521.3 114.68C516.96 119.09 512.43 125.11 506.75 127.83C502.89 129.68 498.27 129.31 494.16 128.71C490.05 128.11 486.32 127.55 482.66 125.38C481.03 124.38 477.92 123.21 476.87 121.56C476.31 120.69 476.87 83.2197 476.87 83.2197Z" fill="#0070BB"/>
</g>
<defs>
<clipPath id="clip0_2330_4033">
<rect width="636.38" height="249.56" fill="white"/>
</clipPath>
</defs>
</svg>
